{
	"asset":{
		"generator":"Khronos glTF Blender I/O v4.4.56",
		"version":"2.0"
	},
	"scene":0,
	"scenes":[
		{
			"name":"Scene",
			"nodes":[
				0,
				1,
				2
			]
		}
	],
	"nodes":[
		{
			"name":"Empty",
			"scale":[
				1.8556841611862183,
				1.8556841611862183,
				1.8556841611862183
			],
			"translation":[
				0,
				-1.7487648725509644,
				0
			]
		},
		{
			"mesh":0,
			"name":"Cube",
			"rotation":[
				0,
				1,
				0,
				0
			],
			"scale":[
				-4.382811069488525,
				-0.05381593108177185,
				-3.298868179321289
			],
			"translation":[
				-0.03919396549463272,
				0,
				-0.34367281198501587
			]
		},
		{
			"mesh":1,
			"name":"Cube.001",
			"scale":[
				1.2462093830108643,
				0.09334134310483932,
				1.2462093830108643
			],
			"translation":[
				1.5029287338256836,
				0.06606149673461914,
				-0.5119147300720215
			]
		}
	],
	"animations":[
		{
			"channels":[
				{
					"sampler":0,
					"target":{
						"node":2,
						"path":"translation"
					}
				},
				{
					"sampler":1,
					"target":{
						"node":2,
						"path":"rotation"
					}
				},
				{
					"sampler":2,
					"target":{
						"node":2,
						"path":"scale"
					}
				}
			],
			"name":"Animation",
			"samplers":[
				{
					"input":8,
					"interpolation":"LINEAR",
					"output":9
				},
				{
					"input":8,
					"interpolation":"LINEAR",
					"output":10
				},
				{
					"input":11,
					"interpolation":"STEP",
					"output":12
				}
			]
		}
	],
	"materials":[
		{
			"doubleSided":true,
			"name":"Material",
			"pbrMetallicRoughness":{
				"baseColorTexture":{
					"index":0
				},
				"metallicFactor":0,
				"roughnessFactor":0.5
			}
		},
		{
			"doubleSided":true,
			"name":"Material.001",
			"pbrMetallicRoughness":{
				"baseColorTexture":{
					"index":1
				},
				"metallicFactor":0,
				"roughnessFactor":0.5
			}
		}
	],
	"meshes":[
		{
			"name":"Cube.001",
			"primitives":[
				{
					"attributes":{
						"POSITION":0,
						"NORMAL":1,
						"TEXCOORD_0":2
					},
					"indices":3,
					"material":0
				}
			]
		},
		{
			"name":"Cube",
			"primitives":[
				{
					"attributes":{
						"POSITION":4,
						"NORMAL":5,
						"TEXCOORD_0":6
					},
					"indices":7,
					"material":1
				}
			]
		}
	],
	"textures":[
		{
			"sampler":0,
			"source":0
		},
		{
			"sampler":0,
			"source":1
		}
	],
	"images":[
		{
			"mimeType":"image/png",
			"name":"DMA card mirror",
			"uri":"DMA%20card%20mirror.png"
		},
		{
			"mimeType":"image/png",
			"name":"artix",
			"uri":"artix.png"
		}
	],
	"accessors":[
		{
			"bufferView":0,
			"componentType":5126,
			"count":12488,
			"max":[
				1.0646895170211792,
				1,
				1.3763405084609985
			],
			"min":[
				-1.0522907972335815,
				-15.6475830078125,
				-1
			],
			"type":"VEC3"
		},
		{
			"bufferView":1,
			"componentType":5126,
			"count":12488,
			"type":"VEC3"
		},
		{
			"bufferView":2,
			"componentType":5126,
			"count":12488,
			"type":"VEC2"
		},
		{
			"bufferView":3,
			"componentType":5123,
			"count":25524,
			"type":"SCALAR"
		},
		{
			"bufferView":4,
			"componentType":5126,
			"count":192,
			"max":[
				1,
				1.2440178394317627,
				1
			],
			"min":[
				-1,
				-1,
				-1
			],
			"type":"VEC3"
		},
		{
			"bufferView":5,
			"componentType":5126,
			"count":192,
			"type":"VEC3"
		},
		{
			"bufferView":6,
			"componentType":5126,
			"count":192,
			"type":"VEC2"
		},
		{
			"bufferView":7,
			"componentType":5123,
			"count":276,
			"type":"SCALAR"
		},
		{
			"bufferView":8,
			"componentType":5126,
			"count":256,
			"max":[
				12.5
			],
			"min":[
				1.875
			],
			"type":"SCALAR"
		},
		{
			"bufferView":9,
			"componentType":5126,
			"count":256,
			"type":"VEC3"
		},
		{
			"bufferView":10,
			"componentType":5126,
			"count":256,
			"type":"VEC4"
		},
		{
			"bufferView":11,
			"componentType":5126,
			"count":2,
			"max":[
				12.5
			],
			"min":[
				1.875
			],
			"type":"SCALAR"
		},
		{
			"bufferView":12,
			"componentType":5126,
			"count":2,
			"type":"VEC3"
		}
	],
	"bufferViews":[
		{
			"buffer":0,
			"byteLength":149856,
			"byteOffset":0,
			"target":34962
		},
		{
			"buffer":0,
			"byteLength":149856,
			"byteOffset":149856,
			"target":34962
		},
		{
			"buffer":0,
			"byteLength":99904,
			"byteOffset":299712,
			"target":34962
		},
		{
			"buffer":0,
			"byteLength":51048,
			"byteOffset":399616,
			"target":34963
		},
		{
			"buffer":0,
			"byteLength":2304,
			"byteOffset":450664,
			"target":34962
		},
		{
			"buffer":0,
			"byteLength":2304,
			"byteOffset":452968,
			"target":34962
		},
		{
			"buffer":0,
			"byteLength":1536,
			"byteOffset":455272,
			"target":34962
		},
		{
			"buffer":0,
			"byteLength":552,
			"byteOffset":456808,
			"target":34963
		},
		{
			"buffer":0,
			"byteLength":1024,
			"byteOffset":457360
		},
		{
			"buffer":0,
			"byteLength":3072,
			"byteOffset":458384
		},
		{
			"buffer":0,
			"byteLength":4096,
			"byteOffset":461456
		},
		{
			"buffer":0,
			"byteLength":8,
			"byteOffset":465552
		},
		{
			"buffer":0,
			"byteLength":24,
			"byteOffset":465560
		}
	],
	"samplers":[
		{
			"magFilter":9729,
			"minFilter":9987
		}
	],
	"buffers":[
		{
			"byteLength":465584,
			"uri":"DMA%20moedl.bin"
		}
	]
}
